<svg id="Layer_1" data-name="Layer 1" xmlns="http://www.w3.org/2000/svg" xmlns:xlink="http://www.w3.org/1999/xlink" viewBox="0 0 1047 1080"><defs><style>.cls-1{fill:#2d314d;}.cls-1,.cls-2{fill-rule:evenodd;}.cls-2{fill:url(#linear-gradient);}</style><linearGradient id="linear-gradient" x1="4930.3" y1="284.87" x2="135211.03" y2="-21807.94" gradientTransform="matrix(1, 0, 0, -1, 0, 1082)" gradientUnits="userSpaceOnUse"><stop offset="0" stop-color="#33d35e"/><stop offset="1" stop-color="#2ab6d9"/></linearGradient></defs><g id="Layer"><path id="b" class="cls-1" d="M53.7,397.81,219.39,563.48a123.38,123.38,0,0,0,87.25,36.14h87.22a123.48,123.48,0,0,1,68.56,20.79,124.44,124.44,0,0,1,18.69,15.34l198.7,198.69a123.38,123.38,0,0,0,87.24,36.14h479.8a100.48,100.48,0,0,0,83.52-156.27,99.45,99.45,0,0,0-12.5-15.21L1211.28,592.5a38,38,0,0,1,0-53.76A38.45,38.45,0,0,1,1217,534a38.37,38.37,0,0,1,13.71-5.68,38.38,38.38,0,0,1,7.41-.73A38,38,0,0,0,1265,462.7l-241-241a123.38,123.38,0,0,0-87.25-36.14H647.51a123.43,123.43,0,0,1-47.22-9.39,123.77,123.77,0,0,1-40-26.74l-43.49-43.49A123.38,123.38,0,0,0,429.52,69.8H139.38a71,71,0,0,0-71,71,71.72,71.72,0,0,0,1.36,13.86,71.47,71.47,0,0,0,10.6,25.58A72.22,72.22,0,0,0,89.19,191l35.49,35.48a50.2,50.2,0,0,1,0,71,49.45,49.45,0,0,1-7.6,6.25,50.11,50.11,0,0,1-27.89,8.46A50.2,50.2,0,0,0,53.7,397.81Z"/><path id="Layer-2" data-name="Layer" class="cls-2" d="M224,19l165.7,165.67a123.36,123.36,0,0,0,40,26.76,123.17,123.17,0,0,0,47.22,9.38h87.23A123.48,123.48,0,0,1,651.38,257L850.09,455.64a123.35,123.35,0,0,0,87.23,36.14h479.8a100.42,100.42,0,0,0,71-171.48l-106.6-106.59a38,38,0,0,1,0-53.76,38,38,0,0,1,26.89-11.15,38,38,0,0,0,26.87-64.9l-241-241a123.9,123.9,0,0,0-18.69-15.35,124.9,124.9,0,0,0-21.34-11.4,124.53,124.53,0,0,0-23.14-7,124,124,0,0,0-24.08-2.37H817.78a123.16,123.16,0,0,1-24.07-2.37,123.35,123.35,0,0,1-23.15-7A122.3,122.3,0,0,1,749.24-214a122.82,122.82,0,0,1-18.7-15.34L687-272.86a122.7,122.7,0,0,0-18.69-15.35A124.48,124.48,0,0,0,647-299.61a123.35,123.35,0,0,0-23.15-7A123.08,123.08,0,0,0,599.8-309H309.65a71,71,0,0,0-71,71A71.71,71.71,0,0,0,240-224.17a71.23,71.23,0,0,0,4.05,13.31,71.87,71.87,0,0,0,6.55,12.27,71.67,71.67,0,0,0,8.84,10.76L295-152.35a50.18,50.18,0,0,1,0,71,49.45,49.45,0,0,1-7.6,6.25,50.57,50.57,0,0,1-8.68,4.64,49.72,49.72,0,0,1-9.42,2.86,50.2,50.2,0,0,1-9.78,1,50.19,50.19,0,0,0-50.2,50.18,50.26,50.26,0,0,0,1,9.8,50.16,50.16,0,0,0,2.86,9.42,50.16,50.16,0,0,0,4.64,8.67A50,50,0,0,0,224,19Z"/></g></svg>